<?xml version="1.0" standalone="no"?>
<!DOCTYPE svg PUBLIC "-//W3C//DTD SVG 20010904//EN"
 "http://www.w3.org/TR/2001/REC-SVG-20010904/DTD/svg10.dtd">
<svg version="1.0" xmlns="http://www.w3.org/2000/svg"
 width="213.000000pt" height="218.000000pt" viewBox="0 0 213.000000 218.000000"
 preserveAspectRatio="xMidYMid meet">
<metadata>
Created by potrace 1.16, written by Peter Selinger 2001-2019
</metadata>
<g transform="translate(0.000000,218.000000) scale(0.100000,-0.100000)"
fill="#000000" stroke="none">
<path d="M656 1774 c-14 -13 -16 -59 -16 -343 0 -293 2 -330 17 -342 12 -11
63 -15 205 -17 l188 -3 0 -70 0 -69 -29 0 c-17 0 -33 -5 -36 -10 -4 -7 52 -10
159 -10 104 0 166 4 166 10 0 6 -16 10 -35 10 l-35 0 0 69 0 70 196 3 c180 3
197 5 210 22 11 16 14 80 14 341 0 299 -1 323 -18 338 -17 15 -66 17 -495 17
-419 0 -477 -2 -491 -16z m973 -18 c8 -9 11 -105 9 -332 l-3 -319 -485 0 -485
0 -3 319 c-2 227 1 323 9 332 17 21 941 21 958 0z m-409 -756 l0 -70 -70 0
-70 0 0 70 0 70 70 0 70 0 0 -70z"/>
<path d="M550 880 c0 -16 6 -20 35 -20 l35 0 0 -229 0 -230 -32 -3 c-22 -2
-34 -9 -36 -20 -3 -16 6 -18 87 -18 55 0 92 4 97 11 8 14 -14 29 -43 29 l-23
0 0 229 0 230 33 3 c20 2 32 8 32 18 0 12 -18 16 -92 18 -88 3 -93 2 -93 -18z"/>
<path d="M796 891 c-11 -18 3 -31 35 -31 l29 0 0 -250 0 -250 148 0 c124 0
154 3 190 20 55 25 76 71 70 149 -4 49 -9 59 -44 89 -23 19 -34 36 -28 40 43
29 58 117 29 172 -29 56 -62 65 -251 68 -116 3 -174 0 -178 -7z m360 -57 c36
-27 47 -67 29 -110 -20 -49 -46 -58 -170 -58 l-110 -1 -3 84 c-2 46 0 91 3 99
4 11 27 13 114 10 92 -2 114 -6 137 -24z m21 -234 c60 -36 65 -133 9 -174 -24
-18 -45 -21 -157 -24 l-129 -4 0 111 0 111 123 0 c103 0 127 -3 154 -20z"/>
<path d="M1340 635 c0 -48 2 -55 20 -55 16 0 20 7 20 35 l0 35 120 0 c108 0
120 -2 120 -17 -1 -33 -27 -91 -71 -160 -68 -104 -99 -188 -99 -270 0 -43 14
-63 32 -45 5 5 14 42 19 81 10 86 29 130 97 234 50 76 81 169 68 203 -4 11
-35 14 -166 14 l-160 0 0 -55z"/>
</g>
</svg>
